<?xml version="1.0" standalone="no"?>
<!DOCTYPE svg PUBLIC "-//W3C//DTD SVG 20010904//EN"
 "http://www.w3.org/TR/2001/REC-SVG-20010904/DTD/svg10.dtd">
<svg version="1.0" xmlns="http://www.w3.org/2000/svg"
 width="544.000000pt" height="544.000000pt" viewBox="0 0 544.000000 544.000000"
 preserveAspectRatio="xMidYMid meet">
<metadata>
Created by potrace 1.14, written by Peter Selinger 2001-2017
</metadata>
<g transform="translate(0.000000,544.000000) scale(0.100000,-0.100000)"
fill="#000000" stroke="none">
<path d="M0 2720 l0 -2720 2720 0 2720 0 0 2720 0 2720 -2720 0 -2720 0 0
-2720z m3052 765 c46 -8 104 -23 129 -34 24 -11 166 -99 314 -196 l270 -175 5
153 c6 175 12 192 82 225 48 24 147 42 226 42 l52 0 0 -376 0 -377 -123 5
c-180 8 -210 21 -542 237 l-280 182 -3 -211 -2 -210 -180 0 -180 0 0 375 0
375 74 0 c40 0 111 -7 158 -15z m-535 -30 c63 -19 103 -62 103 -111 l0 -34
-280 0 -280 0 0 -296 0 -296 -128 4 c-140 4 -174 15 -216 71 -20 27 -21 43
-24 271 l-3 244 -202 5 c-210 5 -248 11 -303 49 -28 19 -34 29 -34 59 0 20 3
39 7 42 3 4 300 7 658 7 553 0 659 -2 702 -15z m-143 -366 c22 -18 104 -171
130 -244 7 -19 9 -18 32 10 34 42 57 127 52 191 l-5 53 44 7 c64 9 73 3 73
-54 0 -70 -50 -164 -161 -303 -118 -147 -214 -245 -265 -269 -39 -19 -116 -26
-148 -14 -9 3 -16 15 -16 25 0 14 7 19 28 19 47 0 125 47 208 124 l79 73 -43
94 c-70 153 -123 241 -154 253 -29 11 -38 40 -15 49 6 3 40 6 73 6 48 1 67 -4
88 -20z m-424 -746 c0 -20 64 -309 70 -316 3 -4 22 66 41 155 33 158 35 163
60 166 26 3 26 2 32 -74 4 -42 7 -139 7 -216 l0 -138 -25 0 -25 0 -1 148 c-1
159 -1 159 -44 -30 -22 -94 -30 -118 -44 -118 -14 0 -23 24 -45 126 -41 186
-45 188 -45 22 l-1 -148 -27 0 -26 0 6 113 c4 61 7 158 7 215 l0 102 30 0 c17
0 30 -3 30 -7z m441 -208 l45 -215 -27 0 c-25 0 -29 5 -34 38 -13 71 -13 72
-60 72 l-43 0 -7 -55 c-6 -53 -8 -55 -36 -55 -25 0 -29 3 -24 23 3 12 21 99
40 192 19 94 37 180 40 193 4 16 13 22 33 22 l28 0 45 -215z m254 201 c26 -11
36 -23 44 -53 16 -57 14 -63 -18 -63 -27 0 -30 3 -33 37 -2 31 -8 39 -31 47
-59 21 -75 -11 -76 -160 -1 -123 6 -161 31 -175 48 -26 88 18 88 97 0 31 -3
34 -30 34 -23 0 -30 4 -30 20 0 18 7 20 55 20 l55 0 0 -110 c0 -103 -1 -110
-20 -110 -14 0 -20 7 -20 21 l0 20 -26 -20 c-46 -36 -112 -22 -139 28 -19 39
-22 293 -2 331 24 48 88 63 152 36z m286 -201 l45 -215 -27 0 c-25 0 -29 5
-34 38 -13 71 -13 72 -60 72 l-43 0 -7 -55 c-6 -53 -8 -55 -36 -55 -25 0 -29
3 -24 23 3 12 21 99 40 192 19 94 37 180 40 193 4 16 13 22 33 22 l28 0 45
-215z m259 208 c0 -5 -30 -89 -65 -188 -36 -99 -65 -183 -65 -187 0 -5 29 -8
65 -8 58 0 65 -2 65 -20 0 -19 -7 -20 -95 -20 -90 0 -95 1 -95 21 0 12 27 97
60 189 33 92 60 170 60 174 0 3 -25 6 -55 6 -48 0 -55 2 -55 20 0 19 7 20 90
20 50 0 90 -3 90 -7z m100 -208 l0 -215 -25 0 -25 0 0 215 0 215 25 0 25 0 0
-215z m170 77 l55 -134 3 136 3 136 24 0 25 0 0 -215 c0 -202 -1 -215 -18
-215 -15 0 -31 29 -71 128 -28 70 -56 134 -61 142 -6 10 -10 -33 -10 -127 l0
-143 -25 0 -25 0 0 216 0 215 22 -3 c19 -2 32 -26 78 -136z m340 118 c0 -18
-7 -20 -55 -20 l-55 0 0 -75 0 -75 45 0 c38 0 45 -3 45 -20 0 -17 -7 -20 -45
-20 l-45 0 0 -80 0 -80 55 0 c48 0 55 -2 55 -20 0 -18 -7 -20 -85 -20 l-85 0
0 215 0 215 85 0 c78 0 85 -2 85 -20z"/>
<path d="M2299 2160 l-16 -90 34 0 c20 0 33 5 33 13 0 18 -27 158 -32 162 -2
3 -11 -36 -19 -85z"/>
<path d="M2839 2160 l-16 -90 34 0 c20 0 33 5 33 13 0 18 -27 158 -32 162 -2
3 -11 -36 -19 -85z"/>
</g>
</svg>
